<mxfile host="app.diagrams.net" modified="2023-07-21T19:06:56.438Z" agent="Mozilla/5.0 (Windows NT 10.0; Win64; x64) AppleWebKit/537.36 (KHTML, like Gecko) Chrome/115.0.0.0 Safari/537.36" etag="raCIZXobqA_rx6r9t_k1" version="21.6.5" type="device">
  <diagram name="Page-1" id="Fa2hmmuMEW8nf4kg4vj4">
    <mxGraphModel dx="1434" dy="760" grid="1" gridSize="10" guides="1" tooltips="1" connect="1" arrows="1" fold="1" page="1" pageScale="1" pageWidth="850" pageHeight="1100" math="0" shadow="0">
      <root>
        <mxCell id="0" />
        <mxCell id="t5StIUC6XQ_gbYd6zFH3-41" value="Avaliability Zone" style="" parent="0" />
        <mxCell id="t5StIUC6XQ_gbYd6zFH3-42" value="Availability Zone 1" style="fillColor=none;strokeColor=#147EBA;dashed=1;verticalAlign=top;fontStyle=0;fontColor=#147EBA;whiteSpace=wrap;html=1;container=0;movable=1;resizable=1;rotatable=1;deletable=1;editable=1;locked=0;connectable=1;" parent="t5StIUC6XQ_gbYd6zFH3-41" vertex="1">
          <mxGeometry x="170" y="280" width="180" height="370" as="geometry" />
        </mxCell>
        <mxCell id="t5StIUC6XQ_gbYd6zFH3-74" value="Availability Zone 2" style="fillColor=none;strokeColor=#147EBA;dashed=1;verticalAlign=top;fontStyle=0;fontColor=#147EBA;whiteSpace=wrap;html=1;container=0;movable=1;resizable=1;rotatable=1;deletable=1;editable=1;locked=0;connectable=1;" parent="t5StIUC6XQ_gbYd6zFH3-41" vertex="1">
          <mxGeometry x="450" y="280" width="185" height="370" as="geometry" />
        </mxCell>
        <mxCell id="t5StIUC6XQ_gbYd6zFH3-85" value="Availability Zone 1" style="fillColor=none;strokeColor=#147EBA;dashed=1;verticalAlign=top;fontStyle=0;fontColor=#147EBA;whiteSpace=wrap;html=1;container=0;movable=1;resizable=1;rotatable=1;deletable=1;editable=1;locked=0;connectable=1;" parent="t5StIUC6XQ_gbYd6zFH3-41" vertex="1">
          <mxGeometry x="850" y="280" width="180" height="370" as="geometry" />
        </mxCell>
        <mxCell id="t5StIUC6XQ_gbYd6zFH3-86" value="Availability Zone 2" style="fillColor=none;strokeColor=#147EBA;dashed=1;verticalAlign=top;fontStyle=0;fontColor=#147EBA;whiteSpace=wrap;html=1;container=0;movable=1;resizable=1;rotatable=1;deletable=1;editable=1;locked=0;connectable=1;" parent="t5StIUC6XQ_gbYd6zFH3-41" vertex="1">
          <mxGeometry x="1130" y="280" width="185" height="370" as="geometry" />
        </mxCell>
        <mxCell id="t5StIUC6XQ_gbYd6zFH3-50" value="Public Subnet" style="" parent="0" />
        <mxCell id="t5StIUC6XQ_gbYd6zFH3-49" value="Public subnet" style="points=[[0,0],[0.25,0],[0.5,0],[0.75,0],[1,0],[1,0.25],[1,0.5],[1,0.75],[1,1],[0.75,1],[0.5,1],[0.25,1],[0,1],[0,0.75],[0,0.5],[0,0.25]];outlineConnect=0;gradientColor=none;html=1;whiteSpace=wrap;fontSize=12;fontStyle=0;container=1;pointerEvents=0;collapsible=0;recursiveResize=0;shape=mxgraph.aws4.group;grIcon=mxgraph.aws4.group_security_group;grStroke=0;strokeColor=#248814;fillColor=#E9F3E6;verticalAlign=top;align=left;spacingLeft=30;fontColor=#248814;dashed=0;" parent="t5StIUC6XQ_gbYd6zFH3-50" vertex="1">
          <mxGeometry x="180" y="320" width="160" height="130" as="geometry" />
        </mxCell>
        <mxCell id="t5StIUC6XQ_gbYd6zFH3-51" value="NAT Gateway" style="sketch=0;outlineConnect=0;fontColor=#232F3E;gradientColor=none;fillColor=#4D27AA;strokeColor=none;dashed=0;verticalLabelPosition=middle;verticalAlign=middle;align=left;html=1;fontSize=12;fontStyle=0;aspect=fixed;pointerEvents=1;shape=mxgraph.aws4.nat_gateway;labelPosition=right;" parent="t5StIUC6XQ_gbYd6zFH3-49" vertex="1">
          <mxGeometry x="22" y="40" width="50" height="50" as="geometry" />
        </mxCell>
        <mxCell id="t5StIUC6XQ_gbYd6zFH3-53" style="rounded=0;orthogonalLoop=1;jettySize=auto;html=1;entryX=0;entryY=0.5;entryDx=0;entryDy=0;entryPerimeter=0;" parent="t5StIUC6XQ_gbYd6zFH3-50" source="t5StIUC6XQ_gbYd6zFH3-51" target="t5StIUC6XQ_gbYd6zFH3-67" edge="1">
          <mxGeometry relative="1" as="geometry">
            <mxPoint x="440.2455741961337" y="169.99931819731376" as="targetPoint" />
          </mxGeometry>
        </mxCell>
        <mxCell id="t5StIUC6XQ_gbYd6zFH3-75" value="Public subnet" style="points=[[0,0],[0.25,0],[0.5,0],[0.75,0],[1,0],[1,0.25],[1,0.5],[1,0.75],[1,1],[0.75,1],[0.5,1],[0.25,1],[0,1],[0,0.75],[0,0.5],[0,0.25]];outlineConnect=0;gradientColor=none;html=1;whiteSpace=wrap;fontSize=12;fontStyle=0;container=1;pointerEvents=0;collapsible=0;recursiveResize=0;shape=mxgraph.aws4.group;grIcon=mxgraph.aws4.group_security_group;grStroke=0;strokeColor=#248814;fillColor=#E9F3E6;verticalAlign=top;align=left;spacingLeft=30;fontColor=#248814;dashed=0;" parent="t5StIUC6XQ_gbYd6zFH3-50" vertex="1">
          <mxGeometry x="460" y="310" width="160" height="130" as="geometry" />
        </mxCell>
        <mxCell id="t5StIUC6XQ_gbYd6zFH3-76" value="NAT Gateway" style="sketch=0;outlineConnect=0;fontColor=#232F3E;gradientColor=none;fillColor=#4D27AA;strokeColor=none;dashed=0;verticalLabelPosition=middle;verticalAlign=middle;align=right;html=1;fontSize=12;fontStyle=0;aspect=fixed;pointerEvents=1;shape=mxgraph.aws4.nat_gateway;labelPosition=left;" parent="t5StIUC6XQ_gbYd6zFH3-75" vertex="1">
          <mxGeometry x="80" y="40" width="50" height="50" as="geometry" />
        </mxCell>
        <mxCell id="t5StIUC6XQ_gbYd6zFH3-87" value="Public subnet" style="points=[[0,0],[0.25,0],[0.5,0],[0.75,0],[1,0],[1,0.25],[1,0.5],[1,0.75],[1,1],[0.75,1],[0.5,1],[0.25,1],[0,1],[0,0.75],[0,0.5],[0,0.25]];outlineConnect=0;gradientColor=none;html=1;whiteSpace=wrap;fontSize=12;fontStyle=0;container=1;pointerEvents=0;collapsible=0;recursiveResize=0;shape=mxgraph.aws4.group;grIcon=mxgraph.aws4.group_security_group;grStroke=0;strokeColor=#248814;fillColor=#E9F3E6;verticalAlign=top;align=left;spacingLeft=30;fontColor=#248814;dashed=0;" parent="t5StIUC6XQ_gbYd6zFH3-50" vertex="1">
          <mxGeometry x="860" y="320" width="160" height="130" as="geometry" />
        </mxCell>
        <mxCell id="t5StIUC6XQ_gbYd6zFH3-88" value="NAT Gateway" style="sketch=0;outlineConnect=0;fontColor=#232F3E;gradientColor=none;fillColor=#4D27AA;strokeColor=none;dashed=0;verticalLabelPosition=middle;verticalAlign=middle;align=left;html=1;fontSize=12;fontStyle=0;aspect=fixed;pointerEvents=1;shape=mxgraph.aws4.nat_gateway;labelPosition=right;" parent="t5StIUC6XQ_gbYd6zFH3-87" vertex="1">
          <mxGeometry x="22" y="40" width="50" height="50" as="geometry" />
        </mxCell>
        <mxCell id="t5StIUC6XQ_gbYd6zFH3-90" value="Public subnet" style="points=[[0,0],[0.25,0],[0.5,0],[0.75,0],[1,0],[1,0.25],[1,0.5],[1,0.75],[1,1],[0.75,1],[0.5,1],[0.25,1],[0,1],[0,0.75],[0,0.5],[0,0.25]];outlineConnect=0;gradientColor=none;html=1;whiteSpace=wrap;fontSize=12;fontStyle=0;container=1;pointerEvents=0;collapsible=0;recursiveResize=0;shape=mxgraph.aws4.group;grIcon=mxgraph.aws4.group_security_group;grStroke=0;strokeColor=#248814;fillColor=#E9F3E6;verticalAlign=top;align=left;spacingLeft=30;fontColor=#248814;dashed=0;" parent="t5StIUC6XQ_gbYd6zFH3-50" vertex="1">
          <mxGeometry x="1140" y="310" width="160" height="130" as="geometry" />
        </mxCell>
        <mxCell id="t5StIUC6XQ_gbYd6zFH3-91" value="NAT Gateway" style="sketch=0;outlineConnect=0;fontColor=#232F3E;gradientColor=none;fillColor=#4D27AA;strokeColor=none;dashed=0;verticalLabelPosition=middle;verticalAlign=middle;align=right;html=1;fontSize=12;fontStyle=0;aspect=fixed;pointerEvents=1;shape=mxgraph.aws4.nat_gateway;labelPosition=left;" parent="t5StIUC6XQ_gbYd6zFH3-90" vertex="1">
          <mxGeometry x="80" y="40" width="50" height="50" as="geometry" />
        </mxCell>
        <mxCell id="t5StIUC6XQ_gbYd6zFH3-55" value="Private Subnet" style="" parent="0" />
        <mxCell id="t5StIUC6XQ_gbYd6zFH3-54" value="Private subnet" style="points=[[0,0],[0.25,0],[0.5,0],[0.75,0],[1,0],[1,0.25],[1,0.5],[1,0.75],[1,1],[0.75,1],[0.5,1],[0.25,1],[0,1],[0,0.75],[0,0.5],[0,0.25]];outlineConnect=0;gradientColor=none;html=1;whiteSpace=wrap;fontSize=12;fontStyle=0;container=1;pointerEvents=0;collapsible=0;recursiveResize=0;shape=mxgraph.aws4.group;grIcon=mxgraph.aws4.group_security_group;grStroke=0;strokeColor=#147EBA;fillColor=#E6F2F8;verticalAlign=top;align=left;spacingLeft=30;fontColor=#147EBA;dashed=0;" parent="t5StIUC6XQ_gbYd6zFH3-55" vertex="1">
          <mxGeometry x="180" y="480" width="160" height="135" as="geometry" />
        </mxCell>
        <mxCell id="t5StIUC6XQ_gbYd6zFH3-77" value="Private subnet" style="points=[[0,0],[0.25,0],[0.5,0],[0.75,0],[1,0],[1,0.25],[1,0.5],[1,0.75],[1,1],[0.75,1],[0.5,1],[0.25,1],[0,1],[0,0.75],[0,0.5],[0,0.25]];outlineConnect=0;gradientColor=none;html=1;whiteSpace=wrap;fontSize=12;fontStyle=0;container=1;pointerEvents=0;collapsible=0;recursiveResize=0;shape=mxgraph.aws4.group;grIcon=mxgraph.aws4.group_security_group;grStroke=0;strokeColor=#147EBA;fillColor=#E6F2F8;verticalAlign=top;align=left;spacingLeft=30;fontColor=#147EBA;dashed=0;" parent="t5StIUC6XQ_gbYd6zFH3-55" vertex="1">
          <mxGeometry x="460" y="480" width="160" height="135" as="geometry" />
        </mxCell>
        <mxCell id="t5StIUC6XQ_gbYd6zFH3-60" value="Auto Scaling group" style="points=[[0,0],[0.25,0],[0.5,0],[0.75,0],[1,0],[1,0.25],[1,0.5],[1,0.75],[1,1],[0.75,1],[0.5,1],[0.25,1],[0,1],[0,0.75],[0,0.5],[0,0.25]];outlineConnect=0;gradientColor=none;html=1;whiteSpace=wrap;fontSize=12;fontStyle=0;container=1;pointerEvents=0;collapsible=0;recursiveResize=0;shape=mxgraph.aws4.groupCenter;grIcon=mxgraph.aws4.group_auto_scaling_group;grStroke=1;strokeColor=#D86613;fillColor=none;verticalAlign=top;align=center;fontColor=#D86613;dashed=1;spacingTop=25;" parent="t5StIUC6XQ_gbYd6zFH3-55" vertex="1">
          <mxGeometry x="190" y="510" width="420" height="95" as="geometry" />
        </mxCell>
        <mxCell id="t5StIUC6XQ_gbYd6zFH3-61" value="AWS Fargate" style="sketch=0;points=[[0,0,0],[0.25,0,0],[0.5,0,0],[0.75,0,0],[1,0,0],[0,1,0],[0.25,1,0],[0.5,1,0],[0.75,1,0],[1,1,0],[0,0.25,0],[0,0.5,0],[0,0.75,0],[1,0.25,0],[1,0.5,0],[1,0.75,0]];outlineConnect=0;fontColor=#232F3E;gradientColor=#F78E04;gradientDirection=north;fillColor=#D05C17;strokeColor=#ffffff;dashed=0;verticalLabelPosition=middle;verticalAlign=middle;align=left;html=1;fontSize=12;fontStyle=0;aspect=fixed;shape=mxgraph.aws4.resourceIcon;resIcon=mxgraph.aws4.fargate;labelPosition=right;" parent="t5StIUC6XQ_gbYd6zFH3-60" vertex="1">
          <mxGeometry x="10" y="20.88" width="53.25" height="53.25" as="geometry" />
        </mxCell>
        <mxCell id="t5StIUC6XQ_gbYd6zFH3-64" style="edgeStyle=orthogonalEdgeStyle;rounded=0;orthogonalLoop=1;jettySize=auto;html=1;exitX=0.5;exitY=0;exitDx=0;exitDy=0;exitPerimeter=0;" parent="t5StIUC6XQ_gbYd6zFH3-60" source="t5StIUC6XQ_gbYd6zFH3-61" target="t5StIUC6XQ_gbYd6zFH3-51" edge="1">
          <mxGeometry relative="1" as="geometry" />
        </mxCell>
        <mxCell id="t5StIUC6XQ_gbYd6zFH3-78" value="AWS Fargate" style="sketch=0;points=[[0,0,0],[0.25,0,0],[0.5,0,0],[0.75,0,0],[1,0,0],[0,1,0],[0.25,1,0],[0.5,1,0],[0.75,1,0],[1,1,0],[0,0.25,0],[0,0.5,0],[0,0.75,0],[1,0.25,0],[1,0.5,0],[1,0.75,0]];outlineConnect=0;fontColor=#232F3E;gradientColor=#F78E04;gradientDirection=north;fillColor=#D05C17;strokeColor=#ffffff;dashed=0;verticalLabelPosition=middle;verticalAlign=middle;align=right;html=1;fontSize=12;fontStyle=0;aspect=fixed;shape=mxgraph.aws4.resourceIcon;resIcon=mxgraph.aws4.fargate;labelPosition=left;" parent="t5StIUC6XQ_gbYd6zFH3-60" vertex="1">
          <mxGeometry x="348" y="20.879999999999995" width="53.25" height="53.25" as="geometry" />
        </mxCell>
        <mxCell id="t5StIUC6XQ_gbYd6zFH3-79" style="rounded=0;orthogonalLoop=1;jettySize=auto;html=1;" parent="t5StIUC6XQ_gbYd6zFH3-55" source="t5StIUC6XQ_gbYd6zFH3-65" target="t5StIUC6XQ_gbYd6zFH3-78" edge="1">
          <mxGeometry relative="1" as="geometry" />
        </mxCell>
        <mxCell id="t5StIUC6XQ_gbYd6zFH3-80" style="rounded=0;orthogonalLoop=1;jettySize=auto;html=1;" parent="t5StIUC6XQ_gbYd6zFH3-55" source="t5StIUC6XQ_gbYd6zFH3-78" target="t5StIUC6XQ_gbYd6zFH3-76" edge="1">
          <mxGeometry relative="1" as="geometry" />
        </mxCell>
        <mxCell id="t5StIUC6XQ_gbYd6zFH3-81" style="rounded=0;orthogonalLoop=1;jettySize=auto;html=1;entryX=1;entryY=0.5;entryDx=0;entryDy=0;entryPerimeter=0;" parent="t5StIUC6XQ_gbYd6zFH3-55" source="t5StIUC6XQ_gbYd6zFH3-76" target="t5StIUC6XQ_gbYd6zFH3-67" edge="1">
          <mxGeometry relative="1" as="geometry" />
        </mxCell>
        <mxCell id="t5StIUC6XQ_gbYd6zFH3-92" value="Private subnet" style="points=[[0,0],[0.25,0],[0.5,0],[0.75,0],[1,0],[1,0.25],[1,0.5],[1,0.75],[1,1],[0.75,1],[0.5,1],[0.25,1],[0,1],[0,0.75],[0,0.5],[0,0.25]];outlineConnect=0;gradientColor=none;html=1;whiteSpace=wrap;fontSize=12;fontStyle=0;container=1;pointerEvents=0;collapsible=0;recursiveResize=0;shape=mxgraph.aws4.group;grIcon=mxgraph.aws4.group_security_group;grStroke=0;strokeColor=#147EBA;fillColor=#E6F2F8;verticalAlign=top;align=left;spacingLeft=30;fontColor=#147EBA;dashed=0;" parent="t5StIUC6XQ_gbYd6zFH3-55" vertex="1">
          <mxGeometry x="860" y="480" width="160" height="135" as="geometry" />
        </mxCell>
        <mxCell id="t5StIUC6XQ_gbYd6zFH3-93" value="Private subnet" style="points=[[0,0],[0.25,0],[0.5,0],[0.75,0],[1,0],[1,0.25],[1,0.5],[1,0.75],[1,1],[0.75,1],[0.5,1],[0.25,1],[0,1],[0,0.75],[0,0.5],[0,0.25]];outlineConnect=0;gradientColor=none;html=1;whiteSpace=wrap;fontSize=12;fontStyle=0;container=1;pointerEvents=0;collapsible=0;recursiveResize=0;shape=mxgraph.aws4.group;grIcon=mxgraph.aws4.group_security_group;grStroke=0;strokeColor=#147EBA;fillColor=#E6F2F8;verticalAlign=top;align=left;spacingLeft=30;fontColor=#147EBA;dashed=0;" parent="t5StIUC6XQ_gbYd6zFH3-55" vertex="1">
          <mxGeometry x="1140" y="480" width="160" height="135" as="geometry" />
        </mxCell>
        <mxCell id="t5StIUC6XQ_gbYd6zFH3-94" value="Auto Scaling group" style="points=[[0,0],[0.25,0],[0.5,0],[0.75,0],[1,0],[1,0.25],[1,0.5],[1,0.75],[1,1],[0.75,1],[0.5,1],[0.25,1],[0,1],[0,0.75],[0,0.5],[0,0.25]];outlineConnect=0;gradientColor=none;html=1;whiteSpace=wrap;fontSize=12;fontStyle=0;container=1;pointerEvents=0;collapsible=0;recursiveResize=0;shape=mxgraph.aws4.groupCenter;grIcon=mxgraph.aws4.group_auto_scaling_group;grStroke=1;strokeColor=#D86613;fillColor=none;verticalAlign=top;align=center;fontColor=#D86613;dashed=1;spacingTop=25;" parent="t5StIUC6XQ_gbYd6zFH3-55" vertex="1">
          <mxGeometry x="870" y="510" width="420" height="95" as="geometry" />
        </mxCell>
        <mxCell id="t5StIUC6XQ_gbYd6zFH3-95" value="AWS Fargate" style="sketch=0;points=[[0,0,0],[0.25,0,0],[0.5,0,0],[0.75,0,0],[1,0,0],[0,1,0],[0.25,1,0],[0.5,1,0],[0.75,1,0],[1,1,0],[0,0.25,0],[0,0.5,0],[0,0.75,0],[1,0.25,0],[1,0.5,0],[1,0.75,0]];outlineConnect=0;fontColor=#232F3E;gradientColor=#F78E04;gradientDirection=north;fillColor=#D05C17;strokeColor=#ffffff;dashed=0;verticalLabelPosition=middle;verticalAlign=middle;align=left;html=1;fontSize=12;fontStyle=0;aspect=fixed;shape=mxgraph.aws4.resourceIcon;resIcon=mxgraph.aws4.fargate;labelPosition=right;" parent="t5StIUC6XQ_gbYd6zFH3-94" vertex="1">
          <mxGeometry x="10" y="20.88" width="53.25" height="53.25" as="geometry" />
        </mxCell>
        <mxCell id="t5StIUC6XQ_gbYd6zFH3-96" value="AWS Fargate" style="sketch=0;points=[[0,0,0],[0.25,0,0],[0.5,0,0],[0.75,0,0],[1,0,0],[0,1,0],[0.25,1,0],[0.5,1,0],[0.75,1,0],[1,1,0],[0,0.25,0],[0,0.5,0],[0,0.75,0],[1,0.25,0],[1,0.5,0],[1,0.75,0]];outlineConnect=0;fontColor=#232F3E;gradientColor=#F78E04;gradientDirection=north;fillColor=#D05C17;strokeColor=#ffffff;dashed=0;verticalLabelPosition=middle;verticalAlign=middle;align=right;html=1;fontSize=12;fontStyle=0;aspect=fixed;shape=mxgraph.aws4.resourceIcon;resIcon=mxgraph.aws4.fargate;labelPosition=left;" parent="t5StIUC6XQ_gbYd6zFH3-94" vertex="1">
          <mxGeometry x="348" y="20.879999999999995" width="53.25" height="53.25" as="geometry" />
        </mxCell>
        <mxCell id="t5StIUC6XQ_gbYd6zFH3-35" value="ECS Cluster" style="" parent="0" />
        <mxCell id="t5StIUC6XQ_gbYd6zFH3-37" value="" style="rounded=0;whiteSpace=wrap;html=1;fillColor=none;dashed=1;strokeWidth=3;movable=1;resizable=1;rotatable=1;deletable=1;editable=1;locked=0;connectable=1;container=1;" parent="t5StIUC6XQ_gbYd6zFH3-35" vertex="1">
          <mxGeometry x="80" y="220" width="580" height="470" as="geometry" />
        </mxCell>
        <mxCell id="t5StIUC6XQ_gbYd6zFH3-38" value="ECS Cluster" style="outlineConnect=0;dashed=0;verticalLabelPosition=bottom;verticalAlign=top;align=center;html=1;shape=mxgraph.aws3.ecs;fillColor=#F58534;gradientColor=none;container=1;resizable=0;" parent="t5StIUC6XQ_gbYd6zFH3-37" vertex="1">
          <mxGeometry x="8.052842105263158" y="10.93" width="67.89" height="69.07" as="geometry">
            <mxRectangle x="9.997924528301887" y="10.930232558139535" width="110" height="30" as="alternateBounds" />
          </mxGeometry>
        </mxCell>
        <mxCell id="t5StIUC6XQ_gbYd6zFH3-101" value="" style="rounded=0;whiteSpace=wrap;html=1;fillColor=none;dashed=1;strokeWidth=3;movable=1;resizable=1;rotatable=1;deletable=1;editable=1;locked=0;connectable=1;container=1;" parent="t5StIUC6XQ_gbYd6zFH3-35" vertex="1">
          <mxGeometry x="760" y="220" width="580" height="470" as="geometry" />
        </mxCell>
        <mxCell id="t5StIUC6XQ_gbYd6zFH3-102" value="ECS Cluster" style="outlineConnect=0;dashed=0;verticalLabelPosition=bottom;verticalAlign=top;align=center;html=1;shape=mxgraph.aws3.ecs;fillColor=#F58534;gradientColor=none;container=1;resizable=0;" parent="t5StIUC6XQ_gbYd6zFH3-101" vertex="1">
          <mxGeometry x="8.052842105263158" y="10.93" width="67.89" height="69.07" as="geometry">
            <mxRectangle x="9.997924528301887" y="10.930232558139535" width="110" height="30" as="alternateBounds" />
          </mxGeometry>
        </mxCell>
        <mxCell id="t5StIUC6XQ_gbYd6zFH3-27" value="VPC" style="" parent="0" />
        <mxCell id="t5StIUC6XQ_gbYd6zFH3-28" value="&#xa;&lt;span style=&quot;color: rgb(170, 183, 184); font-family: Helvetica; font-size: 12px; font-style: normal; font-variant-ligatures: normal; font-variant-caps: normal; font-weight: 400; letter-spacing: normal; orphans: 2; text-align: left; text-indent: 0px; text-transform: none; widows: 2; word-spacing: 0px; -webkit-text-stroke-width: 0px; background-color: rgb(251, 251, 251); text-decoration-thickness: initial; text-decoration-style: initial; text-decoration-color: initial; float: none; display: inline !important;&quot;&gt;VPC&lt;/span&gt;&#xa;&#xa;" style="points=[[0,0],[0.25,0],[0.5,0],[0.75,0],[1,0],[1,0.25],[1,0.5],[1,0.75],[1,1],[0.75,1],[0.5,1],[0.25,1],[0,1],[0,0.75],[0,0.5],[0,0.25]];outlineConnect=0;gradientColor=none;html=1;whiteSpace=wrap;fontSize=12;fontStyle=0;container=0;pointerEvents=0;collapsible=0;recursiveResize=0;shape=mxgraph.aws4.group;grIcon=mxgraph.aws4.group_vpc;strokeColor=#248814;fillColor=none;verticalAlign=top;align=left;spacingLeft=30;fontColor=#AAB7B8;dashed=0;" parent="t5StIUC6XQ_gbYd6zFH3-27" vertex="1">
          <mxGeometry x="60" y="160" width="620" height="550" as="geometry" />
        </mxCell>
        <mxCell id="t5StIUC6XQ_gbYd6zFH3-103" value="&#xa;&lt;span style=&quot;color: rgb(170, 183, 184); font-family: Helvetica; font-size: 12px; font-style: normal; font-variant-ligatures: normal; font-variant-caps: normal; font-weight: 400; letter-spacing: normal; orphans: 2; text-align: left; text-indent: 0px; text-transform: none; widows: 2; word-spacing: 0px; -webkit-text-stroke-width: 0px; background-color: rgb(251, 251, 251); text-decoration-thickness: initial; text-decoration-style: initial; text-decoration-color: initial; float: none; display: inline !important;&quot;&gt;VPC&lt;/span&gt;&#xa;&#xa;" style="points=[[0,0],[0.25,0],[0.5,0],[0.75,0],[1,0],[1,0.25],[1,0.5],[1,0.75],[1,1],[0.75,1],[0.5,1],[0.25,1],[0,1],[0,0.75],[0,0.5],[0,0.25]];outlineConnect=0;gradientColor=none;html=1;whiteSpace=wrap;fontSize=12;fontStyle=0;container=0;pointerEvents=0;collapsible=0;recursiveResize=0;shape=mxgraph.aws4.group;grIcon=mxgraph.aws4.group_vpc;strokeColor=#248814;fillColor=none;verticalAlign=top;align=left;spacingLeft=30;fontColor=#AAB7B8;dashed=0;" parent="t5StIUC6XQ_gbYd6zFH3-27" vertex="1">
          <mxGeometry x="740" y="160" width="620" height="550" as="geometry" />
        </mxCell>
        <mxCell id="t5StIUC6XQ_gbYd6zFH3-58" value="AWS Cloud" style="locked=1;" parent="0" />
        <mxCell id="t5StIUC6XQ_gbYd6zFH3-57" value="AWS Cloud" style="sketch=0;outlineConnect=0;gradientColor=none;html=1;whiteSpace=wrap;fontSize=12;fontStyle=0;shape=mxgraph.aws4.group;grIcon=mxgraph.aws4.group_aws_cloud;strokeColor=#AAB7B8;fillColor=none;verticalAlign=top;align=left;spacingLeft=30;fontColor=#AAB7B8;dashed=0;" parent="t5StIUC6XQ_gbYd6zFH3-58" vertex="1">
          <mxGeometry x="20" y="10" width="1380" height="720" as="geometry" />
        </mxCell>
        <mxCell id="1" parent="0" />
        <mxCell id="t5StIUC6XQ_gbYd6zFH3-18" style="edgeStyle=orthogonalEdgeStyle;rounded=0;orthogonalLoop=1;jettySize=auto;html=1;exitX=0;exitY=0.5;exitDx=0;exitDy=0;exitPerimeter=0;entryX=1;entryY=0.25;entryDx=0;entryDy=0;entryPerimeter=0;" parent="1" source="t5StIUC6XQ_gbYd6zFH3-56" target="t5StIUC6XQ_gbYd6zFH3-70" edge="1">
          <mxGeometry relative="1" as="geometry">
            <mxPoint x="470" y="120" as="targetPoint" />
            <mxPoint x="475" y="63" as="sourcePoint" />
          </mxGeometry>
        </mxCell>
        <mxCell id="t5StIUC6XQ_gbYd6zFH3-59" value="Active" style="edgeLabel;html=1;align=center;verticalAlign=middle;resizable=0;points=[];" parent="t5StIUC6XQ_gbYd6zFH3-18" vertex="1" connectable="0">
          <mxGeometry x="-0.8478" y="-3" relative="1" as="geometry">
            <mxPoint x="-12" y="-6" as="offset" />
          </mxGeometry>
        </mxCell>
        <mxCell id="t5StIUC6XQ_gbYd6zFH3-56" value="Route 53" style="sketch=0;points=[[0,0,0],[0.25,0,0],[0.5,0,0],[0.75,0,0],[1,0,0],[0,1,0],[0.25,1,0],[0.5,1,0],[0.75,1,0],[1,1,0],[0,0.25,0],[0,0.5,0],[0,0.75,0],[1,0.25,0],[1,0.5,0],[1,0.75,0]];outlineConnect=0;fontColor=#232F3E;gradientColor=#945DF2;gradientDirection=north;fillColor=#5A30B5;strokeColor=#ffffff;dashed=0;verticalLabelPosition=bottom;verticalAlign=top;align=center;html=1;fontSize=12;fontStyle=0;aspect=fixed;shape=mxgraph.aws4.resourceIcon;resIcon=mxgraph.aws4.route_53;labelPosition=center;" parent="1" vertex="1">
          <mxGeometry x="670" y="20" width="78" height="78" as="geometry" />
        </mxCell>
        <mxCell id="t5StIUC6XQ_gbYd6zFH3-69" style="rounded=0;orthogonalLoop=1;jettySize=auto;html=1;" parent="1" source="t5StIUC6XQ_gbYd6zFH3-65" target="t5StIUC6XQ_gbYd6zFH3-61" edge="1">
          <mxGeometry relative="1" as="geometry" />
        </mxCell>
        <mxCell id="t5StIUC6XQ_gbYd6zFH3-65" value="ALB" style="sketch=0;outlineConnect=0;fontColor=#232F3E;gradientColor=none;fillColor=#4D27AA;strokeColor=none;dashed=0;verticalLabelPosition=bottom;verticalAlign=top;align=center;html=1;fontSize=12;fontStyle=0;aspect=fixed;pointerEvents=1;shape=mxgraph.aws4.application_load_balancer;" parent="1" vertex="1">
          <mxGeometry x="370" y="370" width="60" height="60" as="geometry" />
        </mxCell>
        <mxCell id="t5StIUC6XQ_gbYd6zFH3-68" style="edgeStyle=orthogonalEdgeStyle;rounded=0;orthogonalLoop=1;jettySize=auto;html=1;" parent="1" source="t5StIUC6XQ_gbYd6zFH3-67" target="t5StIUC6XQ_gbYd6zFH3-65" edge="1">
          <mxGeometry relative="1" as="geometry" />
        </mxCell>
        <mxCell id="t5StIUC6XQ_gbYd6zFH3-83" style="edgeStyle=orthogonalEdgeStyle;rounded=0;orthogonalLoop=1;jettySize=auto;html=1;exitX=0.75;exitY=0;exitDx=0;exitDy=0;exitPerimeter=0;entryX=0.75;entryY=1;entryDx=0;entryDy=0;entryPerimeter=0;" parent="1" source="t5StIUC6XQ_gbYd6zFH3-67" target="t5StIUC6XQ_gbYd6zFH3-70" edge="1">
          <mxGeometry relative="1" as="geometry" />
        </mxCell>
        <mxCell id="t5StIUC6XQ_gbYd6zFH3-67" value="Amazon API Gateway (Private)" style="sketch=0;points=[[0,0,0],[0.25,0,0],[0.5,0,0],[0.75,0,0],[1,0,0],[0,1,0],[0.25,1,0],[0.5,1,0],[0.75,1,0],[1,1,0],[0,0.25,0],[0,0.5,0],[0,0.75,0],[1,0.25,0],[1,0.5,0],[1,0.75,0]];outlineConnect=0;fontColor=#232F3E;gradientColor=#945DF2;gradientDirection=north;fillColor=#5A30B5;strokeColor=#ffffff;dashed=0;verticalLabelPosition=middle;verticalAlign=middle;align=left;html=1;fontSize=12;fontStyle=0;aspect=fixed;shape=mxgraph.aws4.resourceIcon;resIcon=mxgraph.aws4.api_gateway;labelPosition=right;" parent="1" vertex="1">
          <mxGeometry x="371" y="160" width="58" height="58" as="geometry" />
        </mxCell>
        <mxCell id="t5StIUC6XQ_gbYd6zFH3-82" style="edgeStyle=orthogonalEdgeStyle;rounded=0;orthogonalLoop=1;jettySize=auto;html=1;entryX=0.25;entryY=0;entryDx=0;entryDy=0;entryPerimeter=0;exitX=0.25;exitY=1;exitDx=0;exitDy=0;exitPerimeter=0;" parent="1" source="t5StIUC6XQ_gbYd6zFH3-70" target="t5StIUC6XQ_gbYd6zFH3-67" edge="1">
          <mxGeometry relative="1" as="geometry" />
        </mxCell>
        <mxCell id="t5StIUC6XQ_gbYd6zFH3-70" value="Amazon API Gateway (Public)" style="sketch=0;points=[[0,0,0],[0.25,0,0],[0.5,0,0],[0.75,0,0],[1,0,0],[0,1,0],[0.25,1,0],[0.5,1,0],[0.75,1,0],[1,1,0],[0,0.25,0],[0,0.5,0],[0,0.75,0],[1,0.25,0],[1,0.5,0],[1,0.75,0]];outlineConnect=0;fontColor=#232F3E;gradientColor=#945DF2;gradientDirection=north;fillColor=#5A30B5;strokeColor=#ffffff;dashed=0;verticalLabelPosition=middle;verticalAlign=middle;align=left;html=1;fontSize=12;fontStyle=0;aspect=fixed;shape=mxgraph.aws4.resourceIcon;resIcon=mxgraph.aws4.api_gateway;labelPosition=right;" parent="1" vertex="1">
          <mxGeometry x="370" y="44" width="60" height="60" as="geometry" />
        </mxCell>
        <mxCell id="t5StIUC6XQ_gbYd6zFH3-114" value="" style="edgeStyle=orthogonalEdgeStyle;rounded=0;orthogonalLoop=1;jettySize=auto;html=1;exitX=0.75;exitY=0;exitDx=0;exitDy=0;exitPerimeter=0;entryX=0.75;entryY=1;entryDx=0;entryDy=0;entryPerimeter=0;" parent="1" source="t5StIUC6XQ_gbYd6zFH3-108" target="t5StIUC6XQ_gbYd6zFH3-111" edge="1">
          <mxGeometry relative="1" as="geometry" />
        </mxCell>
        <mxCell id="t5StIUC6XQ_gbYd6zFH3-108" value="Amazon API Gateway (Private)" style="sketch=0;points=[[0,0,0],[0.25,0,0],[0.5,0,0],[0.75,0,0],[1,0,0],[0,1,0],[0.25,1,0],[0.5,1,0],[0.75,1,0],[1,1,0],[0,0.25,0],[0,0.5,0],[0,0.75,0],[1,0.25,0],[1,0.5,0],[1,0.75,0]];outlineConnect=0;fontColor=#232F3E;gradientColor=#945DF2;gradientDirection=north;fillColor=#5A30B5;strokeColor=#ffffff;dashed=0;verticalLabelPosition=middle;verticalAlign=middle;align=left;html=1;fontSize=12;fontStyle=0;aspect=fixed;shape=mxgraph.aws4.resourceIcon;resIcon=mxgraph.aws4.api_gateway;labelPosition=right;" parent="1" vertex="1">
          <mxGeometry x="1051" y="160" width="58" height="58" as="geometry" />
        </mxCell>
        <mxCell id="t5StIUC6XQ_gbYd6zFH3-106" value="ALB" style="sketch=0;outlineConnect=0;fontColor=#232F3E;gradientColor=none;fillColor=#4D27AA;strokeColor=none;dashed=0;verticalLabelPosition=bottom;verticalAlign=top;align=center;html=1;fontSize=12;fontStyle=0;aspect=fixed;pointerEvents=1;shape=mxgraph.aws4.application_load_balancer;" parent="1" vertex="1">
          <mxGeometry x="1050" y="370" width="60" height="60" as="geometry" />
        </mxCell>
        <mxCell id="t5StIUC6XQ_gbYd6zFH3-111" value="Amazon API Gateway (Public)" style="sketch=0;points=[[0,0,0],[0.25,0,0],[0.5,0,0],[0.75,0,0],[1,0,0],[0,1,0],[0.25,1,0],[0.5,1,0],[0.75,1,0],[1,1,0],[0,0.25,0],[0,0.5,0],[0,0.75,0],[1,0.25,0],[1,0.5,0],[1,0.75,0]];outlineConnect=0;fontColor=#232F3E;gradientColor=#945DF2;gradientDirection=north;fillColor=#5A30B5;strokeColor=#ffffff;dashed=0;verticalLabelPosition=middle;verticalAlign=middle;align=left;html=1;fontSize=12;fontStyle=0;aspect=fixed;shape=mxgraph.aws4.resourceIcon;resIcon=mxgraph.aws4.api_gateway;labelPosition=right;" parent="1" vertex="1">
          <mxGeometry x="1050" y="44" width="60" height="60" as="geometry" />
        </mxCell>
        <mxCell id="t5StIUC6XQ_gbYd6zFH3-112" value="Inactive for production traffic until the other region becames unavailable" style="edgeStyle=orthogonalEdgeStyle;rounded=0;orthogonalLoop=1;jettySize=auto;html=1;entryX=0;entryY=0.25;entryDx=0;entryDy=0;entryPerimeter=0;fontColor=#a1a1a1;labelBorderColor=none;strokeColor=#a1a1a1;" parent="1" source="t5StIUC6XQ_gbYd6zFH3-56" target="t5StIUC6XQ_gbYd6zFH3-111" edge="1">
          <mxGeometry x="0.2053" y="29" relative="1" as="geometry">
            <mxPoint as="offset" />
          </mxGeometry>
        </mxCell>
        <mxCell id="t5StIUC6XQ_gbYd6zFH3-113" style="edgeStyle=orthogonalEdgeStyle;rounded=0;orthogonalLoop=1;jettySize=auto;html=1;entryX=0.25;entryY=0;entryDx=0;entryDy=0;entryPerimeter=0;exitX=0.25;exitY=1;exitDx=0;exitDy=0;exitPerimeter=0;" parent="1" source="t5StIUC6XQ_gbYd6zFH3-111" target="t5StIUC6XQ_gbYd6zFH3-108" edge="1">
          <mxGeometry relative="1" as="geometry" />
        </mxCell>
        <mxCell id="t5StIUC6XQ_gbYd6zFH3-89" style="rounded=0;orthogonalLoop=1;jettySize=auto;html=1;entryX=0;entryY=0.5;entryDx=0;entryDy=0;entryPerimeter=0;" parent="1" source="t5StIUC6XQ_gbYd6zFH3-88" target="t5StIUC6XQ_gbYd6zFH3-108" edge="1">
          <mxGeometry relative="1" as="geometry">
            <mxPoint x="1120.2455741961337" y="169.99931819731376" as="targetPoint" />
          </mxGeometry>
        </mxCell>
        <mxCell id="t5StIUC6XQ_gbYd6zFH3-97" style="edgeStyle=orthogonalEdgeStyle;rounded=0;orthogonalLoop=1;jettySize=auto;html=1;exitX=0.5;exitY=0;exitDx=0;exitDy=0;exitPerimeter=0;" parent="1" source="t5StIUC6XQ_gbYd6zFH3-95" target="t5StIUC6XQ_gbYd6zFH3-88" edge="1">
          <mxGeometry relative="1" as="geometry" />
        </mxCell>
        <mxCell id="t5StIUC6XQ_gbYd6zFH3-105" style="rounded=0;orthogonalLoop=1;jettySize=auto;html=1;" parent="1" source="t5StIUC6XQ_gbYd6zFH3-106" target="t5StIUC6XQ_gbYd6zFH3-95" edge="1">
          <mxGeometry relative="1" as="geometry" />
        </mxCell>
        <mxCell id="t5StIUC6XQ_gbYd6zFH3-98" style="rounded=0;orthogonalLoop=1;jettySize=auto;html=1;" parent="1" source="t5StIUC6XQ_gbYd6zFH3-106" target="t5StIUC6XQ_gbYd6zFH3-96" edge="1">
          <mxGeometry relative="1" as="geometry" />
        </mxCell>
        <mxCell id="t5StIUC6XQ_gbYd6zFH3-100" style="rounded=0;orthogonalLoop=1;jettySize=auto;html=1;entryX=1;entryY=0.5;entryDx=0;entryDy=0;entryPerimeter=0;" parent="1" source="t5StIUC6XQ_gbYd6zFH3-91" target="t5StIUC6XQ_gbYd6zFH3-108" edge="1">
          <mxGeometry relative="1" as="geometry" />
        </mxCell>
        <mxCell id="t5StIUC6XQ_gbYd6zFH3-99" style="rounded=0;orthogonalLoop=1;jettySize=auto;html=1;" parent="1" source="t5StIUC6XQ_gbYd6zFH3-96" target="t5StIUC6XQ_gbYd6zFH3-91" edge="1">
          <mxGeometry relative="1" as="geometry" />
        </mxCell>
        <mxCell id="t5StIUC6XQ_gbYd6zFH3-22" value="Region" style="" parent="0" />
        <mxCell id="t5StIUC6XQ_gbYd6zFH3-26" value="Region A" style="points=[[0,0],[0.25,0],[0.5,0],[0.75,0],[1,0],[1,0.25],[1,0.5],[1,0.75],[1,1],[0.75,1],[0.5,1],[0.25,1],[0,1],[0,0.75],[0,0.5],[0,0.25]];outlineConnect=0;gradientColor=none;html=1;whiteSpace=wrap;fontSize=12;fontStyle=0;container=0;pointerEvents=0;collapsible=0;recursiveResize=0;shape=mxgraph.aws4.group;grIcon=mxgraph.aws4.group_region;strokeColor=#147EBA;fillColor=none;verticalAlign=top;align=left;spacingLeft=30;fontColor=#147EBA;dashed=1;" parent="t5StIUC6XQ_gbYd6zFH3-22" vertex="1">
          <mxGeometry x="40" y="120" width="660" height="600" as="geometry" />
        </mxCell>
        <mxCell id="t5StIUC6XQ_gbYd6zFH3-104" value="Region B" style="points=[[0,0],[0.25,0],[0.5,0],[0.75,0],[1,0],[1,0.25],[1,0.5],[1,0.75],[1,1],[0.75,1],[0.5,1],[0.25,1],[0,1],[0,0.75],[0,0.5],[0,0.25]];outlineConnect=0;gradientColor=none;html=1;whiteSpace=wrap;fontSize=12;fontStyle=0;container=0;pointerEvents=0;collapsible=0;recursiveResize=0;shape=mxgraph.aws4.group;grIcon=mxgraph.aws4.group_region;strokeColor=#147EBA;fillColor=none;verticalAlign=top;align=left;spacingLeft=30;fontColor=#147EBA;dashed=1;" parent="t5StIUC6XQ_gbYd6zFH3-22" vertex="1">
          <mxGeometry x="720" y="120" width="660" height="600" as="geometry" />
        </mxCell>
        <mxCell id="t5StIUC6XQ_gbYd6zFH3-107" style="edgeStyle=orthogonalEdgeStyle;rounded=0;orthogonalLoop=1;jettySize=auto;html=1;" parent="t5StIUC6XQ_gbYd6zFH3-22" source="t5StIUC6XQ_gbYd6zFH3-108" target="t5StIUC6XQ_gbYd6zFH3-106" edge="1">
          <mxGeometry relative="1" as="geometry" />
        </mxCell>
      </root>
    </mxGraphModel>
  </diagram>
</mxfile>
